<svg version="1.1" id="Layer_1" xmlns="http://www.w3.org/2000/svg" xmlns:xlink="http://www.w3.org/1999/xlink" x="0px" y="0px" viewBox="0 0 500 500" style="enable-background:new 0 0 497.6 497.6;" xml:space="preserve" width="500" height="500"><path style="fill:#3FCAD1;" d="M495.177 500c-36.173 -80.386 -140.675 -54.663 -245.177 -54.663s-209.003 -25.724 -245.177 54.663H495.177z"/><path style="fill:#FF9100;" cx="248.8" cy="220" r="210.4" d="M461.415 221.061A211.415 211.415 0 0 1 250 432.476A211.415 211.415 0 0 1 38.585 221.061A211.415 211.415 0 0 1 461.415 221.061z"/><path style="fill:#FF7900;" d="M399.517 370.579c-82.797 82.797 -216.238 82.797 -299.036 0C17.685 288.585 17.685 154.341 100.483 72.347"/><path style="fill:#FFCE00;" cx="84.8" cy="83.2" r="43.2" d="M128.618 83.602A43.408 43.408 0 0 1 85.209 127.01A43.408 43.408 0 0 1 41.8 83.602A43.408 43.408 0 0 1 128.618 83.602z"/><path style="fill:#FF9D00;" d="M85.209 40.193c24.116 0 43.408 19.293 43.408 43.408s-19.293 43.408 -43.408 43.408"/><path style="fill:#FFBC00;" d="M128.618 83.602c0 24.116 -19.293 40.193 -43.408 40.193s-43.408 -16.077 -43.408 -40.193s19.293 -40.193 43.408 -40.193S128.618 59.486 128.618 83.602z"/><path style="fill:#FFB000;" d="M85.209 43.408c24.116 0 43.408 16.077 43.408 40.193s-19.293 40.193 -43.408 40.193s-43.408 -16.077 -43.408 -40.193"/><path style="fill:#FFBC00;" d="M85.209 43.408c24.116 0 43.408 16.077 43.408 40.193s-19.293 40.193 -43.408 40.193"/><path style="fill:#FFCE00;" d="M128.618 83.602c0 24.116 -19.293 40.193 -43.408 40.193"/><path style="fill:#FF9D00;" cx="84.8" cy="25.6" r="3.2" d="M88.424 25.724A3.216 3.216 0 0 1 85.209 28.939A3.216 3.216 0 0 1 81.993 25.724A3.216 3.216 0 0 1 88.424 25.724z"/><path style="fill:#FFCE00;" points="88.8,15.2 84.8,16 81.6,15.2 84.8,7.2 " d="M89.228 15.274L85.209 16.077L81.993 15.274L85.209 7.234Z"/><path style="fill:#FF9D00;" cx="84.8" cy="140" r="3.2" d="M88.424 140.675A3.216 3.216 0 0 1 85.209 143.891A3.216 3.216 0 0 1 81.993 140.675A3.216 3.216 0 0 1 88.424 140.675z"/><path style="fill:#FFCE00;" points="81.6,151.2 84.8,149.6 88.8,151.2 84.8,158.4 " d="M81.993 151.929L85.209 150.321L89.228 151.929L85.209 159.164Z"/><path style="fill:#FF9D00;" cx="125.6" cy="42.4" r="3.2" d="M129.421 42.605A3.216 3.216 0 0 1 126.206 45.82A3.216 3.216 0 0 1 122.99 42.605A3.216 3.216 0 0 1 129.421 42.605z"/><path style="fill:#FFCE00;" points="136,37.6 132,36 130.4,32 138.4,29.6 " d="M136.656 37.782L132.637 36.173L131.029 32.154L139.067 29.743Z"/><path style="fill:#FF9D00;" cx="44.8" cy="123.2" r="3.2" d="M48.231 123.794A3.216 3.216 0 0 1 45.016 127.01A3.216 3.216 0 0 1 41.8 123.794A3.216 3.216 0 0 1 48.231 123.794z"/><path style="fill:#FFCE00;" points="34.4,128 37.6,130.4 40,133.6 32,136 " d="M34.566 128.618L37.782 131.029L40.193 134.244L32.154 136.656Z"/><path style="fill:#FF9D00;" cx="142.4" cy="83.2" r="3.2" d="M146.303 83.602A3.216 3.216 0 0 1 143.087 86.817A3.216 3.216 0 0 1 139.871 83.602A3.216 3.216 0 0 1 146.303 83.602z"/><path style="fill:#FFCE00;" points="152.8,87.2 152,83.2 152.8,79.2 160.8,83.2 " d="M153.537 87.621L152.733 83.602L153.537 79.582L161.576 83.602Z"/><path style="fill:#FF9D00;" cx="28" cy="83.2" r="3.2" d="M31.351 83.602A3.216 3.216 0 0 1 28.135 86.817A3.216 3.216 0 0 1 24.919 83.602A3.216 3.216 0 0 1 31.351 83.602z"/><path style="fill:#FFCE00;" points="16.8,79.2 18.4,83.2 16.8,87.2 9.6,83.2 " d="M16.881 79.582L18.488 83.602L16.881 87.621L9.646 83.602Z"/><path style="fill:#FF9D00;" cx="125.6" cy="123.2" r="3.2" d="M129.421 123.794A3.216 3.216 0 0 1 126.206 127.01A3.216 3.216 0 0 1 122.99 123.794A3.216 3.216 0 0 1 129.421 123.794z"/><path style="fill:#FFCE00;" points="130.4,133.6 132,130.4 136,128 138.4,136 " d="M131.029 134.244L132.637 131.029L136.656 128.618L139.067 136.656Z"/><path style="fill:#FF9D00;" cx="44.8" cy="42.4" r="3.2" d="M48.231 42.605A3.216 3.216 0 0 1 45.016 45.82A3.216 3.216 0 0 1 41.8 42.605A3.216 3.216 0 0 1 48.231 42.605z"/><g><path style="fill:#FFCE00;" points="40,32 37.6,36 34.4,37.6 32,29.6 	" d="M40.193 32.154L37.782 36.173L34.566 37.782L32.154 29.743Z"/><path style="fill:#FFCE00;" cx="107.2" cy="30.4" r="3.2" d="M110.933 30.547A3.216 3.216 0 0 1 107.717 33.762A3.216 3.216 0 0 1 104.501 30.547A3.216 3.216 0 0 1 110.933 30.547z"/></g><path style="fill:#FF9D00;" points="115.2,21.6 111.2,21.6 108,19.2 114.4,13.6 " d="M115.755 21.704L111.737 21.704L108.521 19.293L114.952 13.665Z"/><path style="fill:#FFCE00;" cx="62.4" cy="136" r="3.2" d="M65.916 136.656A3.216 3.216 0 0 1 62.701 139.871A3.216 3.216 0 0 1 59.486 136.656A3.216 3.216 0 0 1 65.916 136.656z"/><path style="fill:#FF9D00;" points="55.2,144 59.2,144 62.4,147.2 56,152 " d="M55.466 144.695L59.486 144.695L62.701 147.91L56.27 152.733Z"/><path style="fill:#FFCE00;" cx="138.4" cy="61.6" r="3.2" d="M142.283 61.897A3.216 3.216 0 0 1 139.067 65.112A3.216 3.216 0 0 1 135.852 61.897A3.216 3.216 0 0 1 142.283 61.897z"/><path style="fill:#FF9D00;" points="149.6,60.8 147.2,58.4 146.4,54.4 155.2,54.4 " d="M150.321 61.093L147.91 58.681L147.106 54.663L155.948 54.663Z"/><path style="fill:#FFCE00;" cx="32" cy="104.8" r="3.2" d="M35.37 105.305A3.216 3.216 0 0 1 32.154 108.521A3.216 3.216 0 0 1 28.939 105.305A3.216 3.216 0 0 1 35.37 105.305z"/><path style="fill:#FF9D00;" points="20.8,104.8 23.2,108 23.2,112 15.2,111.2 " d="M20.901 105.305L23.312 108.521L23.312 112.54L15.274 111.737Z"/><path style="fill:#FFCE00;" cx="137.6" cy="105.6" r="3.2" d="M141.479 106.109A3.216 3.216 0 0 1 138.263 109.325A3.216 3.216 0 0 1 135.048 106.109A3.216 3.216 0 0 1 141.479 106.109z"/><path style="fill:#FF9D00;" points="146.4,112.8 146.4,108.8 148.8,106.4 154.4,112.8 " d="M147.106 113.344L147.106 109.325L149.518 106.913L155.144 113.344Z"/><path style="fill:#FFCE00;" cx="32" cy="60.8" r="3.2" d="M35.37 61.093A3.216 3.216 0 0 1 32.154 64.308A3.216 3.216 0 0 1 28.939 61.093A3.216 3.216 0 0 1 35.37 61.093z"/><path style="fill:#FF9D00;" points="24,52.8 24,56.8 20.8,60 16,53.6 " d="M24.116 53.054L24.116 57.074L20.901 60.289L16.077 53.858Z"/><path style="fill:#FFCE00;" cx="106.4" cy="136" r="3.2" d="M110.129 136.656A3.216 3.216 0 0 1 106.913 139.871A3.216 3.216 0 0 1 103.698 136.656A3.216 3.216 0 0 1 110.129 136.656z"/><path style="fill:#FF9D00;" points="107.2,147.2 110.4,144.8 114.4,144.8 113.6,152.8 " d="M107.717 147.91L110.933 145.499L114.952 145.499L114.148 153.537Z"/><path style="fill:#FFCE00;" cx="64" cy="29.6" r="3.2" d="M67.524 29.743A3.216 3.216 0 0 1 64.308 32.958A3.216 3.216 0 0 1 61.093 29.743A3.216 3.216 0 0 1 67.524 29.743z"/><path style="fill:#FF9D00;" points="63.2,18.4 60,20.8 56,21.6 56.8,12.8 " d="M63.505 18.488L60.289 20.901L56.27 21.704L57.074 12.861Z"/><path style="fill:#FFE000;" d="M445.337 500c-30.547 -80.386 -106.913 -132.637 -195.338 -132.637s-164.791 52.251 -195.338 132.637H445.337z"/><path style="fill:#EFC100;" d="M445.337 500c-30.547 -80.386 -106.913 -109.325 -195.338 -109.325s-164.791 28.939 -195.338 109.325H445.337z"/><path style="fill:#BC6C15;" d="M286.173 377.01c0 110.129 -16.077 68.328 -36.173 68.328s-36.173 40.997 -36.173 -68.328c0 -110.129 16.077 -198.553 36.173 -198.553S286.173 267.685 286.173 377.01z"/><path style="fill:#3CC676;" d="M225.884 0c27.331 0 49.035 37.782 49.035 82.797s-24.919 82.797 -49.035 82.797V1.607"/><path style="fill:#0AA06E;" d="M274.92 82.797c0 45.016 -24.919 82.797 -49.035 82.797V49.839"/><path style="fill:#3CC676;" d="M128.618 64.308c19.293 -19.293 60.289 -8.842 92.444 23.312s42.605 73.955 23.312 92.444L130.225 65.916"/><path style="fill:#0AA06E;" d="M221.061 87.621c32.154 32.154 42.605 73.955 23.312 92.444l-81.189 -80.386"/><path style="fill:#3CC676;" d="M88.424 187.299c0 -27.331 37.782 -49.035 82.797 -49.035s82.797 24.116 82.797 48.231h-164.791"/><path style="fill:#0AA06E;" d="M171.222 137.46c45.016 0 83.602 24.919 83.602 49.035H137.46"/><path style="fill:#3CC676;" d="M156.752 321.543c-22.508 -14.47 -21.704 -57.074 2.412 -95.659s62.701 -57.878 85.209 -43.408l-86.817 136.656"/><path style="fill:#0AA06E;" d="M159.164 225.884c24.116 -38.585 62.701 -57.878 85.209 -43.408l-61.093 96.463"/><path style="fill:#3CC676;" d="M371.382 64.308c-19.293 -19.293 -60.289 -8.842 -92.444 23.312s-42.605 73.955 -23.312 92.444L369.775 65.916"/><path style="fill:#0AA06E;" d="M278.939 87.621c-32.154 32.154 -42.605 73.955 -23.312 92.444l81.189 -81.189"/><path style="fill:#3CC676;" d="M411.575 187.299c0 -27.331 -37.782 -49.035 -82.797 -49.035s-82.797 24.116 -82.797 48.231h164.791"/><path style="fill:#0AA06E;" d="M328.778 137.46c-45.016 0 -83.602 24.919 -83.602 49.035h117.364"/><path style="fill:#3CC676;" d="M343.248 321.543c22.508 -14.47 21.704 -57.074 -2.412 -95.659s-62.701 -57.878 -85.209 -43.408l86.817 136.656"/><path style="fill:#0AA06E;" d="M340.836 225.884c-24.116 -38.585 -62.701 -57.878 -85.209 -43.408l61.093 96.463"/><path style="fill:#965011;" d="M250 178.457c20.096 0 36.173 89.228 36.173 198.553c0 110.129 -16.077 68.328 -36.173 68.328"/><path style="fill:#FFC114;" cx="218.4" cy="203.2" r="29.6" d="M249.196 204.18A29.743 29.743 0 0 1 219.453 233.923A29.743 29.743 0 0 1 189.71 204.18A29.743 29.743 0 0 1 249.196 204.18z"/><path style="fill:#FF8A15;" d="M241.157 183.28c12.058 12.058 12.058 30.547 0 42.605c-12.058 12.058 -30.547 12.058 -42.605 0"/><path style="fill:#FFC114;" cx="279.2" cy="203.2" r="29.6" d="M310.289 204.18A29.743 29.743 0 0 1 280.546 233.923A29.743 29.743 0 0 1 250.804 204.18A29.743 29.743 0 0 1 310.289 204.18z"/><path style="fill:#FF8A15;" d="M301.447 183.28c12.058 12.058 12.058 30.547 0 42.605c-12.058 12.058 -30.547 12.058 -42.605 0"/><path style="fill:#FFC114;" cx="248.8" cy="151.2" r="29.6" d="M279.743 151.929A29.743 29.743 0 0 1 250 181.672A29.743 29.743 0 0 1 220.257 151.929A29.743 29.743 0 0 1 279.743 151.929z"/><path style="fill:#FF8A15;" d="M250 122.186c16.881 0 29.743 13.665 29.743 29.743c0 16.881 -13.665 29.743 -29.743 29.743"/><g><path style="fill:#D88532;" d="M271.704 246.785c0 1.607 -1.607 4.019 -4.019 4.019h-35.37c-2.412 0 -4.019 -2.412 -4.019 -4.019l0 0c0 -1.607 1.607 -4.019 4.019 -4.019h35.37C270.096 242.766 271.704 245.177 271.704 246.785L271.704 246.785z"/><path style="fill:#D88532;" d="M271.704 270.901c0 1.607 -1.607 4.019 -4.019 4.019h-35.37c-2.412 0 -4.019 -2.412 -4.019 -4.019l0 0c0 -1.607 1.607 -4.019 4.019 -4.019h35.37C270.096 266.881 271.704 269.293 271.704 270.901L271.704 270.901z"/><path style="fill:#D88532;" d="M271.704 295.016c0 1.607 -1.607 4.019 -4.019 4.019h-35.37c-2.412 0 -4.019 -2.412 -4.019 -4.019l0 0c0 -1.607 1.607 -4.019 4.019 -4.019h35.37C270.096 290.997 271.704 293.409 271.704 295.016L271.704 295.016z"/><path style="fill:#D88532;" d="M271.704 319.132c0 1.607 -1.607 4.019 -4.019 4.019h-35.37c-2.412 0 -4.019 -2.412 -4.019 -4.019l0 0c0 -1.607 1.607 -4.019 4.019 -4.019h35.37C270.096 315.113 271.704 317.524 271.704 319.132L271.704 319.132z"/><path style="fill:#D88532;" d="M271.704 343.248c0 1.607 -1.607 4.019 -4.019 4.019h-35.37c-2.412 0 -4.019 -2.412 -4.019 -4.019l0 0c0 -1.607 1.607 -4.019 4.019 -4.019h35.37C270.096 339.228 271.704 341.64 271.704 343.248L271.704 343.248z"/><path style="fill:#D88532;" d="M271.704 367.363c0 1.607 -1.607 4.019 -4.019 4.019h-35.37c-2.412 0 -4.019 -2.412 -4.019 -4.019l0 0c0 -1.607 1.607 -4.019 4.019 -4.019h35.37C270.096 363.344 271.704 365.755 271.704 367.363L271.704 367.363z"/><path style="fill:#D88532;" d="M271.704 391.479c0 1.607 -1.607 4.019 -4.019 4.019h-35.37c-2.412 0 -4.019 -2.412 -4.019 -4.019l0 0c0 -1.607 1.607 -4.019 4.019 -4.019h35.37C270.096 387.46 271.704 389.872 271.704 391.479L271.704 391.479z"/></g><path style="fill:#C69705;" points="312.8,497.6 184.8,497.6 216,417.6 281.6,417.6 " d="M314.308 500L185.691 500L217.042 419.614L282.958 419.614Z"/><g/><g/><g/><g/><g/><g/><g/><g/><g/><g/><g/><g/><g/><g/><g/></svg>