<?xml version="1.0"?>
<svg xmlns:rdf="http://www.w3.org/1999/02/22-rdf-syntax-ns#" xmlns="http://www.w3.org/2000/svg" xmlns:cc="http://creativecommons.org/ns#" xmlns:xlink="http://www.w3.org/1999/xlink" xmlns:dc="http://purl.org/dc/elements/1.1/" xmlns:svg="http://www.w3.org/2000/svg" id="svg3770" viewBox="0 0 591.7 611.88" version="1.1">
  <g id="layer1" transform="translate(-99.413 -25.521)">
    <g id="g4543" transform="translate(54.548 -341.43)">
      <path id="path3794-8" transform="matrix(1.2624 -.32918 .32918 1.2624 -416.67 -319.84)" fill="#d0eaff" d="m600 788.08c0 73.375-97.858 132.86-218.57 132.86s-218.57-59.482-218.57-132.86c0-73.375 97.858-132.86 218.57-132.86s218.57 59.482 218.57 132.86z"/>
      <path id="path3794" transform="matrix(1.2624 -.32918 .32918 1.2624 -383.81 -73.065)" fill="#85c9ff" d="m600 788.08c0 73.375-97.858 132.86-218.57 132.86s-218.57-59.482-218.57-132.86c0-73.375 97.858-132.86 218.57-132.86s218.57 59.482 218.57 132.86z"/>
      <path id="path3794-4" transform="matrix(.68937 -.16301 .17975 .62515 -8.7527 364.98)" fill="#fff" d="m600 788.08c0 73.375-97.858 132.86-218.57 132.86s-218.57-59.482-218.57-132.86c0-73.375 97.858-132.86 218.57-132.86s218.57 59.482 218.57 132.86z"/>
      <path id="path3794-0-4" transform="matrix(.58267 -.15193 .15193 .58267 52.971 388.95)" fill="#a79146" d="m600 788.08c0 73.375-97.858 132.86-218.57 132.86s-218.57-59.482-218.57-132.86c0-73.375 97.858-132.86 218.57-132.86s218.57 59.482 218.57 132.86z"/>
      <path id="path3794-0" transform="matrix(.58267 -.15102 .15193 .57918 55.171 386.85)" fill="#e1ce93" d="m590.36 785.56c0 73.375-86.583 132.17-207.24 128.9-95.053-2.5716-194.59-53.268-213.83-124.71-19.06-70.773 91.43-134.53 212.14-134.53s208.93 56.968 208.93 130.34z"/>
      <path id="path4394" transform="matrix(1 0 0 1.1951 0 -106.38)" fill="#ff0" d="m272.86 515.93c0 16.174-15.67 29.286-35 29.286s-35-13.112-35-29.286 15.67-29.286 35-29.286 35 13.112 35 29.286z"/>
      <path id="path4470-4" fill="#784731" d="m420.54 766.45c7.1745 13.198 18.588 18.339 23.626 0.92623 13.397-46.304 29.781-105.53 30.898-156.99-10.438-1.5152-10.876-3.0305-21.315-4.5457-2.9033 54.557-14.116 109.71-33.209 160.61z"/>
      <path id="path4470" fill="#885037" d="m419.34 764.47c7.1745 13.198 14.588 18.339 19.626 0.92623 13.397-46.304 29.781-105.53 30.898-156.99-10.438-1.5152-6.8765-3.0305-17.315-4.5457-2.9033 54.557-14.116 109.71-33.209 160.61z"/>
      <path id="path4474-4" fill="#50671c" d="m421.34 672.68s-7.374 21.521 0.14018 25.48c7.0637 3.7217 14.635-7.3724 19.83-13.435l14.405-16.809c5.9412-6.9328 2.717-25.183 8.798-25.939 6.081-0.75638 1.9818 7.5962 5.0952 7.8711 1.8916 0.167 2.0418-4.6197 3.8859-4.166 7.4632 1.8361 1.1666 16.348 6.1095 22.233 0 0 5.3924 14.223 10.915 12.996 6.2472-1.3892 4.9609-12.15 4.9539-18.549-0.01-8.8144-13.63-31.2-6.8785-25.533l9.5153 7.9872c7.1704 6.0189 8.5896 16.721 11.535 25.607 1.9422 5.861-2.0552 16.805 3.9842 18.09 5.9031 1.2555 8.1156-8.1856 10.753-14.567 2.6372-6.3809 4.021-16.332 3.4374-23.066-0.58361-6.7348-5.4364-16.36-5.4364-16.36 3.4096 1.9469 20.187 22.391 23.844 20.281 2.9579-2.7732 1.2423-6.6543-0.695-10.216-1.9373-3.5618-18.329-15.337-16.884-17.081 2.8015-3.3803 5.6642 1.9123 9.5067 4.0359 6.5898 3.6419 11.068 18.747 17.301 14.522 9.0108-6.1085-1.9047-24.012-10.243-31.011l-16.435-13.796s-20.301-8.4886-20.301-8.4886c-1.9649-0.46977-17.642-2.6436-24.358 1.9662 0 0-10.365 12.132-17.395 11.94-5.3486-0.14592-7.9723-7.3227-12.719-9.7918-4.7468-2.4691-13.25-7.6924-20.322-10.571-5.311-2.1617-10.751-5.4277-16.467-4.9754-5.7162 0.45225-12.372-1.1268-19.585 1.5495-7.2131 2.6763-24.141 7.2537-21.4 15.656 2.2544 6.9103 14.67-1.3621 21.806 0.0202 4.5114 0.8739 16.561 2.5053 12.793 5.1358 0 0-26.033 0.0242-31.692 9.4885-2.8117 4.7022-1.6861 17.453 3.2986 16.102s20.08-12.443 22.318-8.8669c2.1172 3.3834-6.3401 5.3376-7.8698 9.024 0 0-3.5844 7.757-4.901 11.811-3.484 10.729-15.379 41.329-7.8685 32.913 0 0 9.3631-11.692 14.896-16.692 3.4548-3.1221 7.4161-5.646 11.308-8.202 0 0 6.8428-8.9952 9.8562-6.4719 4.5838 3.8382-11.241 14.348-13.119 20.024-0.26409 0.79927-0.36144 9.9601 0.92802 11.042 1.2895 1.0824 8.1084-1.8997 9.4771-4.022l10.542-16.345s0.41226-0.0312 0.49126 0.11744c3.1854 5.9928-7.1912 12.275-7.1538 19.062v-0.00002z"/>
      <path id="path4474" fill="#6b8925" d="m415.34 666.68s-7.374 21.521 0.14018 25.48c7.0637 3.7217 14.635-7.3724 19.83-13.435l14.405-16.809c5.9412-6.9328 2.717-25.183 8.798-25.939 6.081-0.75638 1.9818 7.5962 5.0952 7.8711 1.8916 0.167 2.0418-4.6197 3.8859-4.166 7.4632 1.8361 1.1666 16.348 6.1095 22.233 0 0 5.3924 14.223 10.915 12.996 6.2472-1.3892 4.9609-12.15 4.9539-18.549-0.01-8.8144-13.63-31.2-6.8785-25.533l9.5153 7.9872c7.1704 6.0189 8.5896 16.721 11.535 25.607 1.9422 5.861-2.0552 16.805 3.9842 18.09 5.9031 1.2555 8.1156-8.1856 10.753-14.567 2.6372-6.3809 4.021-16.332 3.4374-23.066-0.58361-6.7348-5.4364-16.36-5.4364-16.36 3.4096 1.9469 20.187 22.391 23.844 20.281 2.9579-2.7732 1.2423-6.6543-0.695-10.216-1.9373-3.5618-18.329-15.337-16.884-17.081 2.8015-3.3803 5.6642 1.9123 9.5067 4.0359 6.5898 3.6419 11.068 18.747 17.301 14.522 9.0108-6.1085-1.9047-24.012-10.243-31.011l-16.435-13.796s-20.301-8.4886-20.301-8.4886c-1.9649-0.46977-17.642-2.6436-24.358 1.9662 0 0-10.365 12.132-17.395 11.94-5.3486-0.14592-7.9723-7.3227-12.719-9.7918-4.7468-2.4691-13.25-7.6924-20.322-10.571-5.311-2.1617-10.751-5.4277-16.467-4.9754-5.7162 0.45225-12.372-1.1268-19.585 1.5495-7.2131 2.6763-24.141 7.2537-21.4 15.656 2.2544 6.9103 14.67-1.3621 21.806 0.0202 4.5114 0.8739 16.561 2.5053 12.793 5.1358 0 0-26.033 0.0242-31.692 9.4885-2.8117 4.7022-1.6861 17.453 3.2986 16.102s20.08-12.443 22.318-8.8669c2.1172 3.3834-6.3401 5.3376-7.8698 9.024 0 0-3.5844 7.757-4.901 11.811-3.484 10.729-15.379 41.329-7.8685 32.913 0 0 9.3631-11.692 14.896-16.692 3.4548-3.1221 7.4161-5.646 11.308-8.202 0 0 6.8428-8.9952 9.8562-6.4719 4.5838 3.8382-11.241 14.348-13.119 20.024-0.26409 0.79927-0.36144 9.9601 0.92802 11.042 1.2895 1.0824 8.1084-1.8997 9.4771-4.022l10.542-16.345s0.41226-0.0312 0.49126 0.11744c3.1854 5.9928-7.1912 12.275-7.1538 19.062v-0.00002z"/>
    </g>
  </g>
  <metadata>
    <rdf:RDF>
      <cc:Work>
        <dc:format>image/svg+xml</dc:format>
        <dc:type rdf:resource="http://purl.org/dc/dcmitype/StillImage"/>
        <cc:license rdf:resource="http://creativecommons.org/licenses/publicdomain/"/>
        <dc:publisher>
          <cc:Agent rdf:about="http://openclipart.org/">
            <dc:title>Openclipart</dc:title>
          </cc:Agent>
        </dc:publisher>
        <dc:title>Oval island scene</dc:title>
        <dc:date>2010-06-08T07:10:18</dc:date>
        <dc:description>A scene with a coconut tree, the sun, the sea and an island.</dc:description>
        <dc:source>http://openclipart.org/detail/65005/oval-island-scene-by-laobc</dc:source>
        <dc:creator>
          <cc:Agent>
            <dc:title>laobc</dc:title>
          </cc:Agent>
        </dc:creator>
        <dc:subject>
          <rdf:Bag>
            <rdf:li>beach</rdf:li>
            <rdf:li>clip art</rdf:li>
            <rdf:li>clipart</rdf:li>
            <rdf:li>coconut</rdf:li>
            <rdf:li>island</rdf:li>
            <rdf:li>sea</rdf:li>
            <rdf:li>sky</rdf:li>
            <rdf:li>summer</rdf:li>
            <rdf:li>summer2010</rdf:li>
            <rdf:li>sun</rdf:li>
          </rdf:Bag>
        </dc:subject>
      </cc:Work>
      <cc:License rdf:about="http://creativecommons.org/licenses/publicdomain/">
        <cc:permits rdf:resource="http://creativecommons.org/ns#Reproduction"/>
        <cc:permits rdf:resource="http://creativecommons.org/ns#Distribution"/>
        <cc:permits rdf:resource="http://creativecommons.org/ns#DerivativeWorks"/>
      </cc:License>
    </rdf:RDF>
  </metadata>
</svg>
