<?xml version="1.0" encoding="UTF-8"?>
<svg xmlns="http://www.w3.org/2000/svg" xmlns:xlink="http://www.w3.org/1999/xlink" width="285pt" height="211pt" viewBox="0 0 285 211" version="1.1">
<defs>
<filter id="alpha" filterUnits="objectBoundingBox" x="0%" y="0%" width="100%" height="100%">
  <feColorMatrix type="matrix" in="SourceGraphic" values="0 0 0 0 1 0 0 0 0 1 0 0 0 0 1 0 0 0 1 0"/>
</filter>
<mask id="mask0">
  <g filter="url(#alpha)">
<rect x="0" y="0" width="285" height="211" style="fill:rgb(0%,0%,0%);fill-opacity:0.101961;stroke:none;"/>
  </g>
</mask>
<clipPath id="clip1">
  <rect x="0" y="0" width="285" height="212"/>
</clipPath>
<g id="surface5" clip-path="url(#clip1)">
<path style=" stroke:none;fill-rule:nonzero;fill:rgb(0%,0%,0%);fill-opacity:1;" d="M 121.492188 143.144531 C 121.492188 143.144531 159.34375 138.589844 172.589844 131.378906 C 185.835938 124.164062 284.242188 120.75 284.242188 143.144531 C 284.242188 165.542969 171.074219 175.414062 171.074219 175.414062 L 111.652344 171.996094 Z M 121.492188 143.144531 "/>
</g>
<mask id="mask1">
  <g filter="url(#alpha)">
<rect x="0" y="0" width="285" height="211" style="fill:rgb(0%,0%,0%);fill-opacity:0.101961;stroke:none;"/>
  </g>
</mask>
<clipPath id="clip2">
  <rect x="0" y="0" width="285" height="212"/>
</clipPath>
<g id="surface8" clip-path="url(#clip2)">
<path style=" stroke:none;fill-rule:nonzero;fill:rgb(0%,0%,0%);fill-opacity:1;" d="M 132.46875 138.933594 L 124.523438 162.089844 L 0 163.609375 L 0 129.441406 C 0 129.441406 47.6875 118.433594 85.539062 141.96875 C 85.539062 141.96875 130.199219 136.65625 132.46875 138.933594 Z M 132.46875 138.933594 "/>
</g>
<mask id="mask2">
  <g filter="url(#alpha)">
<rect x="0" y="0" width="285" height="211" style="fill:rgb(0%,0%,0%);fill-opacity:0.301961;stroke:none;"/>
  </g>
</mask>
<clipPath id="clip3">
  <rect x="0" y="0" width="285" height="212"/>
</clipPath>
<g id="surface11" clip-path="url(#clip3)">
<path style=" stroke:none;fill-rule:nonzero;fill:rgb(34.117647%,72.156863%,58.039216%);fill-opacity:1;" d="M 211.171875 81.253906 C 210.179688 80.699219 208.332031 82.113281 207.050781 84.414062 C 205.769531 86.714844 205.535156 89.03125 206.527344 89.585938 C 207.523438 90.144531 209.367188 88.730469 210.648438 86.429688 C 211.933594 84.128906 212.164062 81.8125 211.171875 81.253906 Z M 211.171875 81.253906 "/>
<path style="fill:none;stroke-width:1;stroke-linecap:butt;stroke-linejoin:miter;stroke:rgb(24.705882%,23.921569%,33.72549%);stroke-opacity:1;stroke-miterlimit:10;" d="M 819.205377 388.443723 C 819.195408 384.901847 812.573115 382.036753 804.404817 382.038978 C 796.23652 382.041203 789.613714 384.90796 789.60719 388.445143 C 789.611234 391.97642 796.239452 394.852114 804.407749 394.849889 C 812.576047 394.847664 819.198853 391.980907 819.205377 388.443723 Z M 819.205377 388.443723 " transform="matrix(0.156933,-0.281629,0.280792,0.157401,-27.057807,251.172271)"/>
</g>
<mask id="mask3">
  <g filter="url(#alpha)">
<rect x="0" y="0" width="285" height="211" style="fill:rgb(0%,0%,0%);fill-opacity:0.301961;stroke:none;"/>
  </g>
</mask>
<clipPath id="clip4">
  <rect x="0" y="0" width="285" height="212"/>
</clipPath>
<g id="surface14" clip-path="url(#clip4)">
<path style=" stroke:none;fill-rule:nonzero;fill:rgb(34.117647%,72.156863%,58.039216%);fill-opacity:1;" d="M 255.824219 92.738281 C 253.867188 90.980469 251.664062 90.242188 250.90625 91.09375 C 250.148438 91.945312 251.117188 94.058594 253.078125 95.816406 C 255.035156 97.574219 257.238281 98.3125 257.996094 97.460938 C 258.757812 96.609375 257.785156 94.496094 255.824219 92.738281 Z M 255.824219 92.738281 "/>
<path style="fill:none;stroke-width:1;stroke-linecap:butt;stroke-linejoin:miter;stroke:rgb(24.705882%,23.921569%,33.72549%);stroke-opacity:1;stroke-miterlimit:10;" d="M 953.793899 412.757992 C 953.796415 404.591015 950.924973 397.969463 947.387074 397.974211 C 943.850099 397.961837 940.976735 404.591349 940.982318 412.767375 C 940.979802 420.934352 943.851244 427.555905 947.389143 427.551156 C 950.926118 427.563531 953.799481 420.934018 953.793899 412.757992 Z M 953.793899 412.757992 " transform="matrix(0.21452,-0.240408,0.239693,0.21516,-47.926253,232.565284)"/>
</g>
<mask id="mask4">
  <g filter="url(#alpha)">
<rect x="0" y="0" width="285" height="211" style="fill:rgb(0%,0%,0%);fill-opacity:0.301961;stroke:none;"/>
  </g>
</mask>
<clipPath id="clip5">
  <rect x="0" y="0" width="285" height="212"/>
</clipPath>
<g id="surface17" clip-path="url(#clip5)">
<path style=" stroke:none;fill-rule:nonzero;fill:rgb(34.117647%,72.156863%,58.039216%);fill-opacity:1;" d="M 213.4375 68.820312 C 211.476562 67.0625 209.273438 66.328125 208.515625 67.179688 C 207.757812 68.03125 208.726562 70.144531 210.6875 71.902344 C 212.644531 73.660156 214.847656 74.394531 215.605469 73.546875 C 216.367188 72.695312 215.394531 70.578125 213.4375 68.820312 Z M 213.4375 68.820312 "/>
<path style="fill:none;stroke-width:1;stroke-linecap:butt;stroke-linejoin:miter;stroke:rgb(24.705882%,23.921569%,33.72549%);stroke-opacity:1;stroke-miterlimit:10;" d="M 822.007422 338.633549 C 822.009938 330.466572 819.138496 323.845019 815.60962 323.841694 C 812.063622 323.837394 809.199281 330.458832 809.204864 338.634858 C 809.193326 346.809909 812.064768 353.431462 815.602666 353.426713 C 819.148664 353.431013 822.013005 346.809575 822.007422 338.633549 Z M 822.007422 338.633549 " transform="matrix(0.21452,-0.240408,0.239693,0.21516,-44.278874,192.917261)"/>
</g>
</defs>
<g id="surface1">
<path style=" stroke:none;fill-rule:nonzero;fill:rgb(98.431373%,74.509804%,74.509804%);fill-opacity:1;" d="M 121.492188 143.144531 C 121.492188 143.144531 159.34375 138.589844 172.589844 131.378906 C 185.835938 124.164062 284.242188 120.75 284.242188 143.144531 C 284.242188 165.542969 171.074219 175.414062 171.074219 175.414062 L 111.652344 171.996094 Z M 121.492188 143.144531 "/>
<use xlink:href="#surface5" mask="url(#mask0)"/>
<path style=" stroke:none;fill-rule:nonzero;fill:rgb(29.803922%,60.392157%,32.54902%);fill-opacity:1;" d="M 132.46875 138.96875 L 124.523438 162.125 L 0 163.644531 L 0 129.480469 C 0 129.480469 47.6875 118.472656 85.539062 142.007812 C 85.539062 142.007812 130.199219 136.691406 132.46875 138.96875 Z M 132.46875 138.96875 "/>
<use xlink:href="#surface8" mask="url(#mask1)"/>
<path style=" stroke:none;fill-rule:nonzero;fill:rgb(24.705882%,23.921569%,33.72549%);fill-opacity:1;" d="M 274.835938 129.289062 C 274.835938 130.582031 271.945312 131.542969 271.660156 132.792969 C 271.378906 134.03125 273.097656 135.914062 272.550781 137.09375 C 271.988281 138.304688 271.324219 139.460938 270.566406 140.558594 C 269.855469 141.582031 267.652344 141.429688 266.75 142.390625 C 265.867188 143.261719 264.933594 144.078125 263.949219 144.835938 C 262.992188 145.632812 261.695312 145.800781 260.605469 146.535156 C 259.570312 147.234375 259.695312 149.800781 258.550781 150.4375 C 257.457031 151.046875 255.78125 150.554688 254.59375 151.101562 C 253.453125 151.628906 252.851562 153.527344 251.632812 153.992188 C 250.460938 154.4375 249.003906 154.246094 247.761719 154.632812 C 246.5625 155.007812 245.214844 154.949219 243.957031 155.261719 C 242.734375 155.570312 241.800781 157.410156 240.527344 157.65625 C 239.289062 157.898438 237.835938 157.253906 236.550781 157.4375 C 235.300781 157.617188 233.84375 156.027344 232.558594 156.148438 C 231.296875 156.265625 230.109375 157 228.816406 157.058594 C 227.550781 157.117188 226.300781 157.675781 225.011719 157.675781 C 223.71875 157.675781 222.386719 158.890625 221.121094 158.835938 C 219.832031 158.773438 218.660156 156.933594 217.402344 156.816406 C 216.113281 156.695312 214.578125 158.617188 213.324219 158.441406 C 212.042969 158.257812 211.027344 156.375 209.789062 156.132812 C 208.515625 155.886719 206.871094 157.230469 205.648438 156.921875 C 204.390625 156.609375 203.640625 154.417969 202.4375 154.042969 C 201.195312 153.65625 199.65625 154.179688 198.484375 153.730469 C 197.265625 153.265625 195.78125 153.34375 194.640625 152.816406 C 193.453125 152.269531 192.601562 150.976562 191.507812 150.367188 C 190.363281 149.730469 189.832031 148.152344 188.796875 147.453125 C 187.710938 146.71875 186.050781 146.8125 185.09375 146.011719 C 184.082031 145.167969 182.1875 145.125 181.335938 144.21875 C 180.433594 143.257812 180.066406 141.648438 179.355469 140.625 C 178.605469 139.546875 180.078125 137.269531 179.550781 136.128906 C 179.007812 134.945312 176.734375 134.464844 176.453125 133.230469 C 176.164062 131.9375 176.015625 130.617188 176.007812 129.289062 C 176.007812 127.996094 177.953125 127.007812 178.238281 125.757812 C 178.519531 124.523438 177.089844 122.742188 177.632812 121.5625 C 178.15625 120.421875 178.089844 118.671875 178.839844 117.59375 C 179.550781 116.570312 181.332031 116.167969 182.234375 115.210938 C 183.085938 114.300781 184.613281 114.050781 185.625 113.207031 C 186.582031 112.40625 186.460938 110 187.546875 109.261719 C 188.585938 108.5625 190.03125 108.246094 191.175781 107.609375 C 192.269531 107 193.816406 107.101562 195.003906 106.554688 C 196.144531 106.03125 197.929688 107.066406 199.148438 106.601562 C 200.320312 106.152344 201.273438 105.175781 202.515625 104.785156 C 203.71875 104.410156 204.285156 101.550781 205.542969 101.234375 C 206.765625 100.925781 208.273438 101.4375 209.542969 101.1875 C 210.785156 100.945312 212.453125 103.203125 213.734375 103.019531 C 214.984375 102.84375 215.921875 99.828125 217.210938 99.707031 C 218.46875 99.589844 219.890625 101.152344 221.183594 101.09375 C 222.449219 101.035156 223.71875 101.949219 225.011719 101.949219 C 226.300781 101.949219 227.585938 100.691406 228.851562 100.75 C 230.144531 100.8125 231.28125 102.46875 232.542969 102.585938 C 233.828125 102.707031 235.410156 100.183594 236.664062 100.363281 C 237.945312 100.546875 238.933594 102.496094 240.175781 102.738281 C 241.449219 102.988281 243.042969 101.773438 244.265625 102.082031 C 245.523438 102.398438 246.28125 104.472656 247.484375 104.847656 C 248.726562 105.234375 249.492188 106.699219 250.667969 107.144531 C 251.886719 107.609375 254.148438 105.4375 255.289062 105.960938 C 256.476562 106.507812 257.5 107.457031 258.59375 108.0625 C 259.742188 108.699219 261.5625 108.378906 262.597656 109.078125 C 263.683594 109.816406 263.953125 111.789062 264.910156 112.585938 C 265.921875 113.429688 267.589844 113.683594 268.441406 114.59375 C 269.34375 115.550781 269.46875 117.269531 270.183594 118.292969 C 270.933594 119.371094 270.910156 120.867188 271.433594 122.003906 C 271.976562 123.1875 273.429688 124.082031 273.710938 125.320312 C 273.996094 126.566406 274.835938 127.996094 274.835938 129.289062 Z M 274.835938 129.289062 "/>
<path style=" stroke:none;fill-rule:nonzero;fill:rgb(98.431373%,74.509804%,74.509804%);fill-opacity:1;" d="M 138.527344 153.015625 C 138.527344 153.015625 181.292969 131 208.925781 139.351562 C 236.554688 147.703125 275.160156 133.277344 279.703125 138.210938 C 284.242188 143.144531 290.675781 196.292969 236.175781 199.328125 C 181.671875 202.367188 135.121094 190.21875 135.121094 190.21875 Z M 138.527344 153.015625 "/>
<path style=" stroke:none;fill-rule:nonzero;fill:rgb(29.803922%,60.392157%,32.54902%);fill-opacity:1;" d="M 128.453125 150.671875 C 128.453125 150.671875 145.339844 149.597656 144.582031 155.671875 C 143.824219 161.746094 143.066406 208.820312 138.527344 209.957031 C 133.984375 211.097656 98.027344 211.097656 83.265625 211.097656 L 0 211.097656 L 0 138.320312 C 0 138.320312 59.042969 134.792969 88.566406 149.597656 C 88.566406 149.597656 124.058594 149.085938 128.453125 150.671875 Z M 128.453125 150.671875 "/>
<path style="fill:none;stroke-width:1;stroke-linecap:butt;stroke-linejoin:miter;stroke:rgb(24.705882%,23.921569%,33.72549%);stroke-opacity:1;stroke-miterlimit:10;" d="M 802.240186 236.773398 C 792.015241 237.35456 782.980373 243.662579 778.936541 253.070125 C 773.107593 267.163283 780.612363 283.714268 791.869518 293.993555 C 803.138816 304.260736 817.614035 310.132885 830.753454 317.857485 C 848.422451 328.221525 864.282045 342.617371 873.122615 361.081344 C 881.963185 379.557425 882.898246 402.440645 872.515433 420.093415 C 862.873383 436.474894 845.337966 446.281989 828.628317 455.326309 " transform="matrix(0.32167,0,0,0.32263,-50.502257,-39.554257)"/>
<path style="fill:none;stroke-width:1;stroke-linecap:butt;stroke-linejoin:miter;stroke:rgb(24.705882%,23.921569%,33.72549%);stroke-opacity:1;stroke-miterlimit:10;" d="M 849.308936 150.882625 C 839.071848 151.463786 830.049123 157.771806 825.993147 167.179352 C 820.1642 181.27251 827.668969 197.823495 838.938268 208.090675 C 850.207566 218.369962 864.670641 224.242111 877.822204 231.954604 C 895.479057 242.330752 911.350795 256.71449 920.191365 275.190571 C 929.031935 293.666652 929.966996 316.549872 919.584183 334.202642 C 909.942133 350.584121 892.406716 360.391215 875.684923 369.423428 " transform="matrix(0.32167,0,0,0.32263,-50.502257,-39.554257)"/>
<path style="fill:none;stroke-width:1;stroke-linecap:butt;stroke-linejoin:miter;stroke:rgb(24.705882%,23.921569%,33.72549%);stroke-opacity:1;stroke-miterlimit:10;" d="M 1004.055345 170.642104 C 995.603372 164.830493 984.613377 164.297762 975.639227 169.261846 C 962.414803 176.829049 958.213103 194.506033 960.836129 209.53147 C 963.447012 224.5448 971.291804 238.056796 976.975027 252.210491 C 984.58909 271.219303 988.329331 292.31061 984.006195 312.324346 C 979.683059 332.350191 966.41006 351.019992 947.39312 358.611409 C 929.74841 365.657988 909.881414 362.679537 891.131634 359.604226 " transform="matrix(0.32167,0,0,0.32263,-50.502257,-39.554257)"/>
<path style=" stroke:none;fill-rule:nonzero;fill:rgb(34.117647%,72.156863%,58.039216%);fill-opacity:1;" d="M 237.6875 68.363281 C 237.6875 65.917969 233.621094 63.9375 228.605469 63.9375 C 223.589844 63.9375 219.523438 65.917969 219.523438 68.363281 C 219.523438 70.804688 223.589844 72.785156 228.605469 72.785156 C 233.621094 72.785156 237.6875 70.804688 237.6875 68.363281 Z M 237.6875 68.363281 "/>
<path style="fill:none;stroke-width:1;stroke-linecap:butt;stroke-linejoin:miter;stroke:rgb(24.705882%,23.921569%,33.72549%);stroke-opacity:1;stroke-miterlimit:10;" d="M 735.394572 209.532805 C 735.394572 201.965603 722.753043 195.814981 707.148465 195.814981 C 691.556031 195.814981 678.914501 201.965603 678.914501 209.532805 C 678.914501 217.112115 691.556031 223.250629 707.148465 223.250629 C 722.753043 223.250629 735.394572 217.112115 735.394572 209.532805 Z M 735.394572 209.532805 " transform="matrix(0.32167,0,0,0.32263,0,0)"/>
<path style=" stroke:none;fill-rule:nonzero;fill:rgb(34.117647%,72.156863%,58.039216%);fill-opacity:1;" d="M 257.371094 64.566406 C 257.371094 62.121094 253.304688 60.140625 248.285156 60.140625 C 243.269531 60.140625 239.203125 62.121094 239.203125 64.566406 C 239.203125 67.007812 243.269531 68.992188 248.285156 68.992188 C 253.304688 68.992188 257.371094 67.007812 257.371094 64.566406 Z M 257.371094 64.566406 "/>
<path style="fill:none;stroke-width:1;stroke-linecap:butt;stroke-linejoin:miter;stroke:rgb(24.705882%,23.921569%,33.72549%);stroke-opacity:1;stroke-miterlimit:10;" d="M 796.574232 197.764292 C 796.574232 190.19709 783.932703 184.058575 768.340269 184.058575 C 752.735691 184.058575 740.094161 190.19709 740.094161 197.764292 C 740.094161 205.343602 752.735691 211.482116 768.340269 211.482116 C 783.932703 211.482116 796.574232 205.343602 796.574232 197.764292 Z M 796.574232 197.764292 " transform="matrix(0.32167,0,0,0.32263,0,0)"/>
<path style=" stroke:none;fill-rule:nonzero;fill:rgb(34.117647%,72.156863%,58.039216%);fill-opacity:1;" d="M 260.398438 81.269531 C 260.398438 78.824219 256.332031 76.84375 251.316406 76.84375 C 246.296875 76.84375 242.230469 78.824219 242.230469 81.269531 C 242.230469 83.710938 246.296875 85.695312 251.316406 85.695312 C 256.332031 85.695312 260.398438 83.710938 260.398438 81.269531 Z M 260.398438 81.269531 "/>
<path style="fill:none;stroke-width:1;stroke-linecap:butt;stroke-linejoin:miter;stroke:rgb(24.705882%,23.921569%,33.72549%);stroke-opacity:1;stroke-miterlimit:10;" d="M 805.985554 249.536063 C 805.985554 241.968861 793.344024 235.830347 777.75159 235.830347 C 762.159156 235.830347 749.505482 241.968861 749.505482 249.536063 C 749.505482 257.115373 762.159156 263.253888 777.75159 263.253888 C 793.344024 263.253888 805.985554 257.115373 805.985554 249.536063 Z M 805.985554 249.536063 " transform="matrix(0.32167,0,0,0.32263,0,0)"/>
<path style=" stroke:none;fill-rule:nonzero;fill:rgb(34.117647%,72.156863%,58.039216%);fill-opacity:1;" d="M 258.507812 39.511719 C 258.507812 37.066406 254.4375 35.085938 249.421875 35.085938 C 244.40625 35.085938 240.339844 37.066406 240.339844 39.511719 C 240.339844 41.957031 244.40625 43.9375 249.421875 43.9375 C 254.4375 43.9375 258.507812 41.957031 258.507812 39.511719 Z M 258.507812 39.511719 "/>
<path style="fill:none;stroke-width:1;stroke-linecap:butt;stroke-linejoin:miter;stroke:rgb(24.705882%,23.921569%,33.72549%);stroke-opacity:1;stroke-miterlimit:10;" d="M 800.108032 120.106635 C 800.108032 112.539433 787.466502 106.400918 771.861924 106.400918 C 756.26949 106.400918 743.627961 112.539433 743.627961 120.106635 C 743.627961 127.685945 756.26949 133.824459 771.861924 133.824459 C 787.466502 133.824459 800.108032 127.685945 800.108032 120.106635 Z M 800.108032 120.106635 " transform="matrix(0.32167,0,0,0.32263,0,0)"/>
<path style=" stroke:none;fill-rule:nonzero;fill:rgb(34.117647%,72.156863%,58.039216%);fill-opacity:1;" d="M 235.796875 36.855469 C 235.796875 34.410156 231.730469 32.429688 226.714844 32.429688 C 221.695312 32.429688 217.628906 34.410156 217.628906 36.855469 C 217.628906 39.296875 221.695312 41.277344 226.714844 41.277344 C 231.730469 41.277344 235.796875 39.296875 235.796875 36.855469 Z M 235.796875 36.855469 "/>
<path style="fill:none;stroke-width:1;stroke-linecap:butt;stroke-linejoin:miter;stroke:rgb(24.705882%,23.921569%,33.72549%);stroke-opacity:1;stroke-miterlimit:10;" d="M 729.504907 111.873519 C 729.504907 104.306317 716.863377 98.155695 701.270943 98.155695 C 685.678509 98.155695 673.024836 104.306317 673.024836 111.873519 C 673.024836 119.452829 685.678509 125.591343 701.270943 125.591343 C 716.863377 125.591343 729.504907 119.452829 729.504907 111.873519 Z M 729.504907 111.873519 " transform="matrix(0.32167,0,0,0.32263,0,0)"/>
<path style=" stroke:none;fill-rule:nonzero;fill:rgb(34.117647%,72.156863%,58.039216%);fill-opacity:1;" d="M 246.015625 27.363281 C 246.015625 24.917969 241.949219 22.9375 236.933594 22.9375 C 231.914062 22.9375 227.847656 24.917969 227.847656 27.363281 C 227.847656 29.808594 231.914062 31.789062 236.933594 31.789062 C 241.949219 31.789062 246.015625 29.808594 246.015625 27.363281 Z M 246.015625 27.363281 "/>
<path style="fill:none;stroke-width:1;stroke-linecap:butt;stroke-linejoin:miter;stroke:rgb(24.705882%,23.921569%,33.72549%);stroke-opacity:1;stroke-miterlimit:10;" d="M 761.27267 82.464344 C 761.27267 74.885034 748.63114 68.74652 733.038706 68.74652 C 717.446272 68.74652 704.804742 74.885034 704.804742 82.464344 C 704.804742 90.031546 717.446272 96.182168 733.038706 96.182168 C 748.63114 96.182168 761.27267 90.031546 761.27267 82.464344 Z M 761.27267 82.464344 " transform="matrix(0.32167,0,0,0.32263,0,0)"/>
<path style=" stroke:none;fill-rule:nonzero;fill:rgb(34.117647%,72.156863%,58.039216%);fill-opacity:1;" d="M 268.347656 29.261719 C 268.347656 26.816406 264.28125 24.835938 259.261719 24.835938 C 254.246094 24.835938 250.179688 26.816406 250.179688 29.261719 C 250.179688 31.707031 254.246094 33.6875 259.261719 33.6875 C 264.28125 33.6875 268.347656 31.707031 268.347656 29.261719 Z M 268.347656 29.261719 "/>
<path style="fill:none;stroke-width:1;stroke-linecap:butt;stroke-linejoin:miter;stroke:rgb(24.705882%,23.921569%,33.72549%);stroke-opacity:1;stroke-miterlimit:10;" d="M 830.697862 88.3486 C 830.697862 80.769291 818.056332 74.630776 802.463898 74.630776 C 786.85932 74.630776 774.217791 80.769291 774.217791 88.3486 C 774.217791 95.915803 786.85932 102.054317 802.463898 102.054317 C 818.056332 102.054317 830.697862 95.915803 830.697862 88.3486 Z M 830.697862 88.3486 " transform="matrix(0.32167,0,0,0.32263,0,0)"/>
<path style=" stroke:none;fill-rule:nonzero;fill:rgb(34.117647%,72.156863%,58.039216%);fill-opacity:1;" d="M 285 41.789062 C 285 39.34375 280.933594 37.363281 275.917969 37.363281 C 270.898438 37.363281 266.832031 39.34375 266.832031 41.789062 C 266.832031 44.234375 270.898438 46.214844 275.917969 46.214844 C 280.933594 46.214844 285 44.234375 285 41.789062 Z M 285 41.789062 "/>
<path style="fill:none;stroke-width:1;stroke-linecap:butt;stroke-linejoin:miter;stroke:rgb(24.705882%,23.921569%,33.72549%);stroke-opacity:1;stroke-miterlimit:10;" d="M 882.466201 127.177429 C 882.466201 119.598119 869.824671 113.459605 854.232237 113.459605 C 838.639803 113.459605 825.986129 119.598119 825.986129 127.177429 C 825.986129 134.744631 838.639803 140.883146 854.232237 140.883146 C 869.824671 140.883146 882.466201 134.744631 882.466201 127.177429 Z M 882.466201 127.177429 " transform="matrix(0.32167,0,0,0.32263,0,0)"/>
<path style=" stroke:none;fill-rule:nonzero;fill:rgb(34.117647%,72.156863%,58.039216%);fill-opacity:1;" d="M 226.335938 19.769531 C 226.335938 17.328125 222.269531 15.347656 217.25 15.347656 C 212.234375 15.347656 208.167969 17.328125 208.167969 19.769531 C 208.167969 22.214844 212.234375 24.195312 217.25 24.195312 C 222.269531 24.195312 226.335938 22.214844 226.335938 19.769531 Z M 226.335938 19.769531 "/>
<path style="fill:none;stroke-width:1;stroke-linecap:butt;stroke-linejoin:miter;stroke:rgb(24.705882%,23.921569%,33.72549%);stroke-opacity:1;stroke-miterlimit:10;" d="M 700.09301 58.927318 C 700.09301 51.348008 687.45148 45.209493 671.859046 45.209493 C 656.254468 45.209493 643.612939 51.348008 643.612939 58.927318 C 643.612939 66.506628 656.254468 72.645142 671.859046 72.645142 C 687.45148 72.645142 700.09301 66.506628 700.09301 58.927318 Z M 700.09301 58.927318 " transform="matrix(0.32167,0,0,0.32263,0,0)"/>
<path style=" stroke:none;fill-rule:nonzero;fill:rgb(34.117647%,72.156863%,58.039216%);fill-opacity:1;" d="M 232.011719 5.347656 C 232.011719 2.902344 227.945312 0.921875 222.929688 0.921875 C 217.910156 0.921875 213.84375 2.902344 213.84375 5.347656 C 213.84375 7.789062 217.910156 9.769531 222.929688 9.769531 C 227.945312 9.769531 232.011719 7.789062 232.011719 5.347656 Z M 232.011719 5.347656 "/>
<path style="fill:none;stroke-width:1;stroke-linecap:butt;stroke-linejoin:miter;stroke:rgb(24.705882%,23.921569%,33.72549%);stroke-opacity:1;stroke-miterlimit:10;" d="M 717.737719 14.214233 C 717.737719 6.634923 705.09619 0.496408 689.503755 0.496408 C 673.911321 0.496408 661.269792 6.634923 661.269792 14.214233 C 661.269792 21.793543 673.911321 27.932057 689.503755 27.932057 C 705.09619 27.932057 717.737719 21.793543 717.737719 14.214233 Z M 717.737719 14.214233 " transform="matrix(0.32167,0,0,0.32263,0,0)"/>
<path style=" stroke:none;fill-rule:nonzero;fill:rgb(34.117647%,72.156863%,58.039216%);fill-opacity:1;" d="M 284.621094 15.976562 C 284.621094 13.53125 280.554688 11.550781 275.539062 11.550781 C 270.519531 11.550781 266.453125 13.53125 266.453125 15.976562 C 266.453125 18.417969 270.519531 20.398438 275.539062 20.398438 C 280.554688 20.398438 284.621094 18.417969 284.621094 15.976562 Z M 284.621094 15.976562 "/>
<path style="fill:none;stroke-width:1;stroke-linecap:butt;stroke-linejoin:miter;stroke:rgb(24.705882%,23.921569%,33.72549%);stroke-opacity:1;stroke-miterlimit:10;" d="M 881.288268 47.158805 C 881.288268 39.591602 868.646738 33.44098 853.054304 33.44098 C 837.46187 33.44098 824.82034 39.591602 824.82034 47.158805 C 824.82034 54.738115 837.46187 60.876629 853.054304 60.876629 C 868.646738 60.876629 881.288268 54.738115 881.288268 47.158805 Z M 881.288268 47.158805 " transform="matrix(0.32167,0,0,0.32263,0,0)"/>
<path style=" stroke:none;fill-rule:nonzero;fill:rgb(34.117647%,72.156863%,58.039216%);fill-opacity:1;" d="M 200.976562 50.898438 C 200.976562 48.457031 196.910156 46.472656 191.890625 46.472656 C 186.875 46.472656 182.808594 48.457031 182.808594 50.898438 C 182.808594 53.34375 186.875 55.324219 191.890625 55.324219 C 196.910156 55.324219 200.976562 53.34375 200.976562 50.898438 Z M 200.976562 50.898438 "/>
<path style="fill:none;stroke-width:1;stroke-linecap:butt;stroke-linejoin:miter;stroke:rgb(24.705882%,23.921569%,33.72549%);stroke-opacity:1;stroke-miterlimit:10;" d="M 621.256497 155.412174 C 621.256497 147.832864 608.614967 141.69435 593.022533 141.69435 C 577.417955 141.69435 564.776425 147.832864 564.776425 155.412174 C 564.776425 162.991484 577.417955 169.129999 593.022533 169.129999 C 608.614967 169.129999 621.256497 162.991484 621.256497 155.412174 Z M 621.256497 155.412174 " transform="matrix(0.32167,0,0,0.32263,0,0)"/>
<path style=" stroke:none;fill-rule:nonzero;fill:rgb(34.117647%,72.156863%,58.039216%);fill-opacity:1;" d="M 232.390625 48.621094 C 232.390625 46.179688 228.324219 44.195312 223.308594 44.195312 C 218.289062 44.195312 214.222656 46.179688 214.222656 48.621094 C 214.222656 51.066406 218.289062 53.046875 223.308594 53.046875 C 228.324219 53.046875 232.390625 51.066406 232.390625 48.621094 Z M 232.390625 48.621094 "/>
<path style="fill:none;stroke-width:1;stroke-linecap:butt;stroke-linejoin:miter;stroke:rgb(24.705882%,23.921569%,33.72549%);stroke-opacity:1;stroke-miterlimit:10;" d="M 718.915652 148.353488 C 718.915652 140.774178 706.274123 134.635664 690.681689 134.635664 C 675.089254 134.635664 662.435581 140.774178 662.435581 148.353488 C 662.435581 155.932798 675.089254 162.071312 690.681689 162.071312 C 706.274123 162.071312 718.915652 155.932798 718.915652 148.353488 Z M 718.915652 148.353488 " transform="matrix(0.32167,0,0,0.32263,0,0)"/>
<path style=" stroke:none;fill-rule:nonzero;fill:rgb(34.117647%,72.156863%,58.039216%);fill-opacity:1;" d="M 273.644531 52.039062 C 273.644531 49.59375 269.578125 47.613281 264.5625 47.613281 C 259.546875 47.613281 255.476562 49.59375 255.476562 52.039062 C 255.476562 54.480469 259.546875 56.464844 264.5625 56.464844 C 269.578125 56.464844 273.644531 54.480469 273.644531 52.039062 Z M 273.644531 52.039062 "/>
<path style="fill:none;stroke-width:1;stroke-linecap:butt;stroke-linejoin:miter;stroke:rgb(24.705882%,23.921569%,33.72549%);stroke-opacity:1;stroke-miterlimit:10;" d="M 847.176782 158.935464 C 847.176782 151.368261 834.523109 145.229747 818.930674 145.229747 C 803.33824 145.229747 790.696711 151.368261 790.696711 158.935464 C 790.696711 166.514773 803.33824 172.653288 818.930674 172.653288 C 834.523109 172.653288 847.176782 166.514773 847.176782 158.935464 Z M 847.176782 158.935464 " transform="matrix(0.32167,0,0,0.32263,0,0)"/>
<path style=" stroke:none;fill-rule:nonzero;fill:rgb(34.117647%,72.156863%,58.039216%);fill-opacity:1;" d="M 251.691406 53.558594 C 251.691406 51.113281 247.625 49.132812 242.609375 49.132812 C 237.59375 49.132812 233.527344 51.113281 233.527344 53.558594 C 233.527344 56 237.59375 57.980469 242.609375 57.980469 C 247.625 57.980469 251.691406 56 251.691406 53.558594 Z M 251.691406 53.558594 "/>
<path style="fill:none;stroke-width:1;stroke-linecap:butt;stroke-linejoin:miter;stroke:rgb(24.705882%,23.921569%,33.72549%);stroke-opacity:1;stroke-miterlimit:10;" d="M 778.929523 163.64529 C 778.929523 156.078088 766.287993 149.927466 750.683416 149.927466 C 735.090981 149.927466 722.449452 156.078088 722.449452 163.64529 C 722.449452 171.2246 735.090981 177.363115 750.683416 177.363115 C 766.287993 177.363115 778.929523 171.2246 778.929523 163.64529 Z M 778.929523 163.64529 " transform="matrix(0.32167,0,0,0.32263,0,0)"/>
<path style=" stroke:none;fill-rule:nonzero;fill:rgb(34.117647%,72.156863%,58.039216%);fill-opacity:1;" d="M 253.207031 15.59375 C 253.207031 13.152344 249.140625 11.171875 244.125 11.171875 C 239.105469 11.171875 235.039062 13.152344 235.039062 15.59375 C 235.039062 18.039062 239.105469 20.019531 244.125 20.019531 C 249.140625 20.019531 253.207031 18.039062 253.207031 15.59375 Z M 253.207031 15.59375 "/>
<path style="fill:none;stroke-width:1;stroke-linecap:butt;stroke-linejoin:miter;stroke:rgb(24.705882%,23.921569%,33.72549%);stroke-opacity:1;stroke-miterlimit:10;" d="M 783.629112 45.984375 C 783.629112 38.405065 770.987582 32.266551 755.395148 32.266551 C 739.802714 32.266551 727.161184 38.405065 727.161184 45.984375 C 727.161184 53.563685 739.802714 59.702199 755.395148 59.702199 C 770.987582 59.702199 783.629112 53.563685 783.629112 45.984375 Z M 783.629112 45.984375 " transform="matrix(0.32167,0,0,0.32263,0,0)"/>
<path style=" stroke:none;fill-rule:nonzero;fill:rgb(34.117647%,72.156863%,58.039216%);fill-opacity:1;" d="M 214.222656 39.132812 C 214.222656 36.6875 210.15625 34.707031 205.140625 34.707031 C 200.121094 34.707031 196.054688 36.6875 196.054688 39.132812 C 196.054688 41.574219 200.121094 43.558594 205.140625 43.558594 C 210.15625 43.558594 214.222656 41.574219 214.222656 39.132812 Z M 214.222656 39.132812 "/>
<path style="fill:none;stroke-width:1;stroke-linecap:butt;stroke-linejoin:miter;stroke:rgb(24.705882%,23.921569%,33.72549%);stroke-opacity:1;stroke-miterlimit:10;" d="M 662.435581 118.932205 C 662.435581 111.365003 649.794052 105.214381 634.201617 105.214381 C 618.609183 105.214381 605.967654 111.365003 605.967654 118.932205 C 605.967654 126.511515 618.609183 132.65003 634.201617 132.65003 C 649.794052 132.65003 662.435581 126.511515 662.435581 118.932205 Z M 662.435581 118.932205 " transform="matrix(0.32167,0,0,0.32263,0,0)"/>
<path style=" stroke:none;fill-rule:nonzero;fill:rgb(34.117647%,72.156863%,58.039216%);fill-opacity:1;" d="M 219.523438 56.214844 C 219.523438 53.769531 215.453125 51.789062 210.4375 51.789062 C 205.421875 51.789062 201.355469 53.769531 201.355469 56.214844 C 201.355469 58.65625 205.421875 60.640625 210.4375 60.640625 C 215.453125 60.640625 219.523438 58.65625 219.523438 56.214844 Z M 219.523438 56.214844 "/>
<path style="fill:none;stroke-width:1;stroke-linecap:butt;stroke-linejoin:miter;stroke:rgb(24.705882%,23.921569%,33.72549%);stroke-opacity:1;stroke-miterlimit:10;" d="M 678.914501 171.878406 C 678.914501 164.311204 666.272971 158.17269 650.680537 158.17269 C 635.075959 158.17269 622.43443 164.311204 622.43443 171.878406 C 622.43443 179.457716 635.075959 185.596231 650.680537 185.596231 C 666.272971 185.596231 678.914501 179.457716 678.914501 171.878406 Z M 678.914501 171.878406 " transform="matrix(0.32167,0,0,0.32263,0,0)"/>
<use xlink:href="#surface11" mask="url(#mask2)"/>
<use xlink:href="#surface14" mask="url(#mask3)"/>
<use xlink:href="#surface17" mask="url(#mask4)"/>
</g>
</svg>
