<?xml version="1.0" encoding="iso-8859-1"?>
<!-- Generator: Adobe Illustrator 19.0.0, SVG Export Plug-In . SVG Version: 6.00 Build 0)  -->
<svg version="1.1" id="Layer_1" xmlns="http://www.w3.org/2000/svg" xmlns:xlink="http://www.w3.org/1999/xlink" x="0px" y="0px"
	 viewBox="0 0 497.6 497.6" style="enable-background:new 0 0 497.6 497.6;" xml:space="preserve">
<path style="fill:#3FCAD1;" d="M492.8,497.6c-36-80-140-54.4-244-54.4s-208-25.6-244,54.4H492.8z"/>
<circle style="fill:#FF9100;" cx="248.8" cy="220" r="210.4"/>
<path style="fill:#FF7900;" d="M397.6,368.8c-82.4,82.4-215.2,82.4-297.6,0C17.6,287.2,17.6,153.6,100,72"/>
<circle style="fill:#FFCE00;" cx="84.8" cy="83.2" r="43.2"/>
<path style="fill:#FF9D00;" d="M84.8,40c24,0,43.2,19.2,43.2,43.2s-19.2,43.2-43.2,43.2"/>
<path style="fill:#FFBC00;" d="M128,83.2c0,24-19.2,40-43.2,40s-43.2-16-43.2-40s19.2-40,43.2-40S128,59.2,128,83.2z"/>
<path style="fill:#FFB000;" d="M84.8,43.2c24,0,43.2,16,43.2,40s-19.2,40-43.2,40s-43.2-16-43.2-40"/>
<path style="fill:#FFBC00;" d="M84.8,43.2c24,0,43.2,16,43.2,40s-19.2,40-43.2,40"/>
<path style="fill:#FFCE00;" d="M128,83.2c0,24-19.2,40-43.2,40"/>
<circle style="fill:#FF9D00;" cx="84.8" cy="25.6" r="3.2"/>
<polygon style="fill:#FFCE00;" points="88.8,15.2 84.8,16 81.6,15.2 84.8,7.2 "/>
<circle style="fill:#FF9D00;" cx="84.8" cy="140" r="3.2"/>
<polygon style="fill:#FFCE00;" points="81.6,151.2 84.8,149.6 88.8,151.2 84.8,158.4 "/>
<circle style="fill:#FF9D00;" cx="125.6" cy="42.4" r="3.2"/>
<polygon style="fill:#FFCE00;" points="136,37.6 132,36 130.4,32 138.4,29.6 "/>
<circle style="fill:#FF9D00;" cx="44.8" cy="123.2" r="3.2"/>
<polygon style="fill:#FFCE00;" points="34.4,128 37.6,130.4 40,133.6 32,136 "/>
<circle style="fill:#FF9D00;" cx="142.4" cy="83.2" r="3.2"/>
<polygon style="fill:#FFCE00;" points="152.8,87.2 152,83.2 152.8,79.2 160.8,83.2 "/>
<circle style="fill:#FF9D00;" cx="28" cy="83.2" r="3.2"/>
<polygon style="fill:#FFCE00;" points="16.8,79.2 18.4,83.2 16.8,87.2 9.6,83.2 "/>
<circle style="fill:#FF9D00;" cx="125.6" cy="123.2" r="3.2"/>
<polygon style="fill:#FFCE00;" points="130.4,133.6 132,130.4 136,128 138.4,136 "/>
<circle style="fill:#FF9D00;" cx="44.8" cy="42.4" r="3.2"/>
<g>
	<polygon style="fill:#FFCE00;" points="40,32 37.6,36 34.4,37.6 32,29.6 	"/>
	<circle style="fill:#FFCE00;" cx="107.2" cy="30.4" r="3.2"/>
</g>
<polygon style="fill:#FF9D00;" points="115.2,21.6 111.2,21.6 108,19.2 114.4,13.6 "/>
<circle style="fill:#FFCE00;" cx="62.4" cy="136" r="3.2"/>
<polygon style="fill:#FF9D00;" points="55.2,144 59.2,144 62.4,147.2 56,152 "/>
<circle style="fill:#FFCE00;" cx="138.4" cy="61.6" r="3.2"/>
<polygon style="fill:#FF9D00;" points="149.6,60.8 147.2,58.4 146.4,54.4 155.2,54.4 "/>
<circle style="fill:#FFCE00;" cx="32" cy="104.8" r="3.2"/>
<polygon style="fill:#FF9D00;" points="20.8,104.8 23.2,108 23.2,112 15.2,111.2 "/>
<circle style="fill:#FFCE00;" cx="137.6" cy="105.6" r="3.2"/>
<polygon style="fill:#FF9D00;" points="146.4,112.8 146.4,108.8 148.8,106.4 154.4,112.8 "/>
<circle style="fill:#FFCE00;" cx="32" cy="60.8" r="3.2"/>
<polygon style="fill:#FF9D00;" points="24,52.8 24,56.8 20.8,60 16,53.6 "/>
<circle style="fill:#FFCE00;" cx="106.4" cy="136" r="3.2"/>
<polygon style="fill:#FF9D00;" points="107.2,147.2 110.4,144.8 114.4,144.8 113.6,152.8 "/>
<circle style="fill:#FFCE00;" cx="64" cy="29.6" r="3.2"/>
<polygon style="fill:#FF9D00;" points="63.2,18.4 60,20.8 56,21.6 56.8,12.8 "/>
<path style="fill:#FFE000;" d="M443.2,497.6c-30.4-80-106.4-132-194.4-132s-164,52-194.4,132H443.2z"/>
<path style="fill:#EFC100;" d="M443.2,497.6c-30.4-80-106.4-108.8-194.4-108.8s-164,28.8-194.4,108.8H443.2z"/>
<path style="fill:#BC6C15;" d="M284.8,375.2c0,109.6-16,68-36,68s-36,40.8-36-68c0-109.6,16-197.6,36-197.6S284.8,266.4,284.8,375.2
	z"/>
<path style="fill:#3CC676;" d="M224.8,0c27.2,0,48.8,37.6,48.8,82.4s-24.8,82.4-48.8,82.4V1.6"/>
<path style="fill:#0AA06E;" d="M273.6,82.4c0,44.8-24.8,82.4-48.8,82.4V49.6"/>
<path style="fill:#3CC676;" d="M128,64c19.2-19.2,60-8.8,92,23.2s42.4,73.6,23.2,92L129.6,65.6"/>
<path style="fill:#0AA06E;" d="M220,87.2c32,32,42.4,73.6,23.2,92l-80.8-80"/>
<path style="fill:#3CC676;" d="M88,186.4c0-27.2,37.6-48.8,82.4-48.8s82.4,24,82.4,48h-164"/>
<path style="fill:#0AA06E;" d="M170.4,136.8c44.8,0,83.2,24.8,83.2,48.8H136.8"/>
<path style="fill:#3CC676;" d="M156,320c-22.4-14.4-21.6-56.8,2.4-95.2s62.4-57.6,84.8-43.2l-86.4,136"/>
<path style="fill:#0AA06E;" d="M158.4,224.8c24-38.4,62.4-57.6,84.8-43.2l-60.8,96"/>
<path style="fill:#3CC676;" d="M369.6,64c-19.2-19.2-60-8.8-92,23.2s-42.4,73.6-23.2,92L368,65.6"/>
<path style="fill:#0AA06E;" d="M277.6,87.2c-32,32-42.4,73.6-23.2,92l80.8-80.8"/>
<path style="fill:#3CC676;" d="M409.6,186.4c0-27.2-37.6-48.8-82.4-48.8s-82.4,24-82.4,48h164"/>
<path style="fill:#0AA06E;" d="M327.2,136.8c-44.8,0-83.2,24.8-83.2,48.8h116.8"/>
<path style="fill:#3CC676;" d="M341.6,320c22.4-14.4,21.6-56.8-2.4-95.2s-62.4-57.6-84.8-43.2l86.4,136"/>
<path style="fill:#0AA06E;" d="M339.2,224.8c-24-38.4-62.4-57.6-84.8-43.2l60.8,96"/>
<path style="fill:#965011;" d="M248.8,177.6c20,0,36,88.8,36,197.6c0,109.6-16,68-36,68"/>
<circle style="fill:#FFC114;" cx="218.4" cy="203.2" r="29.6"/>
<path style="fill:#FF8A15;" d="M240,182.4c12,12,12,30.4,0,42.4c-12,12-30.4,12-42.4,0"/>
<circle style="fill:#FFC114;" cx="279.2" cy="203.2" r="29.6"/>
<path style="fill:#FF8A15;" d="M300,182.4c12,12,12,30.4,0,42.4c-12,12-30.4,12-42.4,0"/>
<circle style="fill:#FFC114;" cx="248.8" cy="151.2" r="29.6"/>
<path style="fill:#FF8A15;" d="M248.8,121.6c16.8,0,29.6,13.6,29.6,29.6c0,16.8-13.6,29.6-29.6,29.6"/>
<g>
	<path style="fill:#D88532;" d="M270.4,245.6c0,1.6-1.6,4-4,4h-35.2c-2.4,0-4-2.4-4-4l0,0c0-1.6,1.6-4,4-4h35.2
		C268.8,241.6,270.4,244,270.4,245.6L270.4,245.6z"/>
	<path style="fill:#D88532;" d="M270.4,269.6c0,1.6-1.6,4-4,4h-35.2c-2.4,0-4-2.4-4-4l0,0c0-1.6,1.6-4,4-4h35.2
		C268.8,265.6,270.4,268,270.4,269.6L270.4,269.6z"/>
	<path style="fill:#D88532;" d="M270.4,293.6c0,1.6-1.6,4-4,4h-35.2c-2.4,0-4-2.4-4-4l0,0c0-1.6,1.6-4,4-4h35.2
		C268.8,289.6,270.4,292,270.4,293.6L270.4,293.6z"/>
	<path style="fill:#D88532;" d="M270.4,317.6c0,1.6-1.6,4-4,4h-35.2c-2.4,0-4-2.4-4-4l0,0c0-1.6,1.6-4,4-4h35.2
		C268.8,313.6,270.4,316,270.4,317.6L270.4,317.6z"/>
	<path style="fill:#D88532;" d="M270.4,341.6c0,1.6-1.6,4-4,4h-35.2c-2.4,0-4-2.4-4-4l0,0c0-1.6,1.6-4,4-4h35.2
		C268.8,337.6,270.4,340,270.4,341.6L270.4,341.6z"/>
	<path style="fill:#D88532;" d="M270.4,365.6c0,1.6-1.6,4-4,4h-35.2c-2.4,0-4-2.4-4-4l0,0c0-1.6,1.6-4,4-4h35.2
		C268.8,361.6,270.4,364,270.4,365.6L270.4,365.6z"/>
	<path style="fill:#D88532;" d="M270.4,389.6c0,1.6-1.6,4-4,4h-35.2c-2.4,0-4-2.4-4-4l0,0c0-1.6,1.6-4,4-4h35.2
		C268.8,385.6,270.4,388,270.4,389.6L270.4,389.6z"/>
</g>
<polygon style="fill:#C69705;" points="312.8,497.6 184.8,497.6 216,417.6 281.6,417.6 "/>
<g>
</g>
<g>
</g>
<g>
</g>
<g>
</g>
<g>
</g>
<g>
</g>
<g>
</g>
<g>
</g>
<g>
</g>
<g>
</g>
<g>
</g>
<g>
</g>
<g>
</g>
<g>
</g>
<g>
</g>
</svg>
